<?xml version="1.0" encoding="UTF-8"?>
<svg width="256" height="256" viewBox="0 0 256 256" fill="none" xmlns="http://www.w3.org/2000/svg">
  <path d="M167.8 48.8c-10.2 0-21.6 6-28.5 14.2-6.2 7.2-11.5 18.1-9.5 28.5 11.2.8 22.9-5.5 29.7-13.6 6.9-8.3 12-19.2 8.3-29.1z" fill="#111827"/>
  <path d="M214.9 176.4c-4.6 10.6-10.1 20-17 28.9-8.7 11.1-18.9 22.5-32.9 22.7-12.3.2-15.5-7.4-32.2-7.3-16.7 0-20.2 7.3-32.6 7.4-14 .1-24.7-12-33.4-23.1-18.2-23.2-32.2-65.5-13.5-94.2 9.4-14.4 26-23.5 44-23.7 13.7-.3 26.7 8 32.2 8 5.2 0 18.2-9.8 30.7-8.4 5.2.2 24.9 2.1 36.7 20.1-1 0-21.6 12.6-21.4 37.6.1 30.1 28.6 39.6 39.4 41.9z" fill="#111827"/>
</svg>

