<svg xmlns="http://www.w3.org/2000/svg" width="882.438" height="260" viewBox="0 0 882.438 260">
  <g id="Grupo_32" data-name="Grupo 32" transform="translate(-521.012 -399)">
    <g id="Grupo_14" data-name="Grupo 14" transform="translate(521.012 454.899)">
      <path id="Uni贸n_6" data-name="Uni贸n 6" d="M60.224,102.019h-.2c-22.156-.1-28.109-5.359-30.654-9.327l-.513-.8L2.595,30.032A20.049,20.049,0,0,1,2.5,10.469,20.315,20.315,0,0,1,20.3,0h79.849a20.315,20.315,0,0,1,17.8,10.469,20.049,20.049,0,0,1-.093,19.564L91.588,91.892l-.513.8c-2.545,3.967-8.5,9.23-30.654,9.327h-.2ZM12.718,24.967l26.19,61.685c1.743,2.717,11.485,4.094,21.335,4.13,9.836-.04,19.555-1.417,21.3-4.13l26.19-61.685a8.93,8.93,0,0,0-7.581-13.733H20.3A8.93,8.93,0,0,0,12.718,24.967Z" transform="translate(9.198 10)" fill="#1c2c24"/>
      <path id="Uni贸n_9" data-name="Uni贸n 9" d="M69.422,118.251h-.228c-25.54-.112-32.4-6.212-35.336-10.81l-.591-.926L2.991,34.811A23.376,23.376,0,0,1,23.4,0h92.045a23.376,23.376,0,0,1,20.408,34.811l-30.276,71.7-.591.926c-2.934,4.6-9.8,10.7-35.336,10.81h-.228ZM14.66,28.94l30.19,71.5c2.01,3.15,13.24,4.746,24.594,4.788,11.338-.046,22.542-1.642,24.549-4.788l30.19-71.5a10.353,10.353,0,0,0-8.739-15.917H23.4A10.353,10.353,0,0,0,14.66,28.94Z" transform="translate(0 41.951)" fill="#1c2c24"/>
    </g>
    <text id="Ganado" transform="translate(673.449 613)" fill="#1c2c24" font-size="206" font-family="Plus Jakarta Sans" font-weight="800" letter-spacing="-0.07em"><tspan x="0" y="0">Ganado</tspan></text>
  </g>
</svg>
